<?xml version="1.0" encoding="UTF-8" standalone="no"?>
<!DOCTYPE svg PUBLIC "-//W3C//DTD SVG 1.1//EN" "http://www.w3.org/Graphics/SVG/1.1/DTD/svg11.dtd">
<svg width="100%" height="100%" viewBox="0 0 32 32" version="1.1" xmlns="http://www.w3.org/2000/svg" xmlns:xlink="http://www.w3.org/1999/xlink" xml:space="preserve" xmlns:serif="http://www.serif.com/" style="fill-rule:evenodd;clip-rule:evenodd;stroke-linejoin:round;stroke-miterlimit:2;">
    <g transform="matrix(1.4305,0,0,1.48556,-6.38248,-7.53106)">
        <path d="M26.832,15.84C26.832,21.784 21.82,26.61 15.647,26.61C9.474,26.61 4.462,21.784 4.462,15.84C4.462,9.896 9.474,5.069 15.647,5.069C21.82,5.069 26.832,9.896 26.832,15.84Z" style="fill:white;"/>
    </g>
    <g transform="matrix(1,0,0,1,3.35336,3.16019)">
        <path d="M26.832,6.362L26.832,25.318C26.832,26.031 26.252,26.61 25.539,26.61L5.754,26.61C5.041,26.61 4.462,26.031 4.462,25.318L4.462,6.362C4.462,5.649 5.041,5.069 5.754,5.069L25.539,5.069C26.252,5.069 26.832,5.649 26.832,6.362Z" style="fill:rgb(0,242,234);"/>
    </g>
    <g transform="matrix(1,0,0,1,-2.64664,-2.83981)">
        <path d="M26.832,6.362L26.832,25.318C26.832,26.031 26.252,26.61 25.539,26.61L5.754,26.61C5.041,26.61 4.462,26.031 4.462,25.318L4.462,6.362C4.462,5.649 5.041,5.069 5.754,5.069L25.539,5.069C26.252,5.069 26.832,5.649 26.832,6.362Z" style="fill:rgb(255,191,0);"/>
    </g>
    <g transform="matrix(0.825997,0,0,0.847735,3.07593,2.57203)">
        <path d="M26.832,6.318L26.832,25.361C26.832,26.051 26.257,26.61 25.55,26.61L5.743,26.61C5.036,26.61 4.462,26.051 4.462,25.361L4.462,6.318C4.462,5.629 5.036,5.069 5.743,5.069L25.55,5.069C26.257,5.069 26.832,5.629 26.832,6.318Z"/>
    </g>
</svg>
