<?xml version="1.0" encoding="UTF-8" standalone="no"?>
<!-- Created with Inkscape (http://www.inkscape.org/) -->

<svg
   version="1.1"
   id="svg2"
   width="416.22668"
   height="107.74667"
   viewBox="0 0 416.22668 107.74667"
   sodipodi:docname="WI-Logo_Black.eps"
   xmlns:inkscape="http://www.inkscape.org/namespaces/inkscape"
   xmlns:sodipodi="http://sodipodi.sourceforge.net/DTD/sodipodi-0.dtd"
   xmlns="http://www.w3.org/2000/svg"
   xmlns:svg="http://www.w3.org/2000/svg">
  <defs
     id="defs6" />
  <sodipodi:namedview
     id="namedview4"
     pagecolor="#ffffff"
     bordercolor="#000000"
     borderopacity="0.25"
     inkscape:showpageshadow="2"
     inkscape:pageopacity="0.0"
     inkscape:pagecheckerboard="0"
     inkscape:deskcolor="#d1d1d1" />
  <g
     id="g8"
     inkscape:groupmode="layer"
     inkscape:label="ink_ext_XXXXXX"
     transform="matrix(1.3333333,0,0,-1.3333333,0,107.74667)">
    <g
       id="g10"
       transform="scale(0.1)">
      <path
         d="m 759.676,697.883 h -27.113 l -79.864,-224.274 -71.98,224.274 h -3.699 -17.754 -5.914 L 474.77,472.91 407.164,697.883 H 379.559 L 460.91,445.215 h 4.195 17.985 3.699 l 80.895,226.535 72.933,-226.535 h 1.973 19.226 2.954 l 94.906,252.668"
         style="fill:#231f20;fill-opacity:1;fill-rule:nonzero;stroke:none"
         id="path12" />
      <path
         d="m 1781.84,701.582 c -95.5,0 -95.5,-71.859 -95.5,-91.703 V 445.215 H 1711 v 160.961 c 0,19.847 -0.05,74.449 70.84,74.449 70.89,0 71.39,-54.602 71.39,-74.449 V 445.215 h 24.65 v 164.664 c 0,19.844 -0.54,91.703 -96.04,91.703"
         style="fill:#231f20;fill-opacity:1;fill-rule:nonzero;stroke:none"
         id="path14" />
      <path
         d="m 3029.24,701.582 c -49.25,0 -70.35,-23.496 -79.36,-49.5 -10.54,25.773 -33.32,49.5 -81.37,49.5 -84.14,0 -92,-61.035 -92.63,-91.68 l -0.06,-0.023 V 445.215 h 24.66 v 159.246 c 0,30.559 6.63,76.164 68.03,76.164 57.66,0 67.79,-43.633 67.79,-76.164 V 445.215 h 24.65 v 0.496 h 0.01 v 161.434 c 0.63,27.949 11.44,73.48 68.28,73.48 60.13,0 67.8,-43.137 67.8,-74.449 V 445.215 h 24.64 v 162.449 c 0,28.348 -8.38,93.918 -92.44,93.918"
         style="fill:#231f20;fill-opacity:1;fill-rule:nonzero;stroke:none"
         id="path16" />
      <path
         d="m 2698.21,697.883 h -24.65 V 536.906 c 0,-24.148 -3.62,-74.433 -72.23,-74.433 -68.21,0 -72.96,50.285 -72.96,74.433 v 160.977 h -24.66 V 537.125 c 0,-24.367 4.54,-95.609 97.62,-95.609 87.54,0 96.19,64.398 96.83,91.679 l 0.05,0.024 v 164.664"
         style="fill:#231f20;fill-opacity:1;fill-rule:nonzero;stroke:none"
         id="path18" />
      <path
         d="m 1101.34,697.879 h -24.65 V 445.211 h 24.65 v 252.668"
         style="fill:#231f20;fill-opacity:1;fill-rule:nonzero;stroke:none"
         id="path20" />
      <path
         d="m 1089.01,786.379 c -11.57,0 -20.96,-9.664 -20.96,-21.574 0,-11.914 9.39,-21.563 20.96,-21.563 11.57,0 20.96,9.649 20.96,21.563 0,11.91 -9.39,21.574 -20.96,21.574"
         style="fill:#231f20;fill-opacity:1;fill-rule:nonzero;stroke:none"
         id="path22" />
      <path
         d="m 1510.75,701.336 c -69.08,0 -105.51,-50.285 -105.51,-123.258 0,-86.769 33.47,-136.808 104.47,-136.808 81.84,0 95.93,66.574 98.59,80.117 h -25.38 c -5.43,-32.301 -28.66,-59.16 -72.26,-59.16 -56.45,0 -80.77,41.699 -80.77,114.378 0,69.875 32.02,103.774 80.86,103.774 54.61,0 77.15,-35.531 77.15,-92.188 h -113.64 v -21.937 h 138.78 c 0.38,4.887 0.38,11.09 0.38,16.508 0,90.289 -47.38,118.574 -102.67,118.574"
         style="fill:#231f20;fill-opacity:1;fill-rule:nonzero;stroke:none"
         id="path24" />
      <path
         d="m 898.742,701.336 c -69.078,0 -105.504,-50.285 -105.504,-123.258 0,-86.769 33.465,-136.808 104.465,-136.808 81.848,0 95.938,66.574 98.598,80.117 h -25.387 c -5.43,-32.301 -28.66,-59.16 -72.258,-59.16 -56.453,0 -80.769,41.699 -80.769,114.378 0,69.875 32.011,103.774 80.855,103.774 54.613,0 77.156,-35.531 77.156,-92.188 h -113.64 v -21.937 h 138.782 c 0.37,4.887 0.37,11.09 0.37,16.508 0,90.289 -47.379,118.574 -102.668,118.574"
         style="fill:#231f20;fill-opacity:1;fill-rule:nonzero;stroke:none"
         id="path26" />
      <path
         d="m 1356.77,697.883 h -185.13 v -20.957 h 159.49 L 1170.91,466.16 v -20.945 h 189.31 v 20.945 h -164.29 l 160.84,210.766 v 20.957"
         style="fill:#231f20;fill-opacity:1;fill-rule:nonzero;stroke:none"
         id="path28" />
      <path
         d="m 1975.51,808.07 h -24.65 V 565.02 h 0.02 c 0.24,-44.153 5.17,-123.258 103.02,-123.258 80.12,0 99.35,76.781 99.35,129.668 0,52.871 -12.58,130.183 -95.17,130.183 -27.59,0 -45.35,-11.125 -45.35,-11.125 l 11.09,-18.492 c 0,0 12.79,8.637 34.26,8.637 75.94,0 70.51,-90.727 70.51,-109.203 0,-23.149 -4.19,-108.961 -74.69,-108.961 -67.32,0 -78.39,55.496 -78.39,108.961 v 236.64"
         style="fill:#231f20;fill-opacity:1;fill-rule:nonzero;stroke:none"
         id="path30" />
      <path
         d="m 2312.71,702.074 c -85.3,0 -89.24,-63.101 -89.24,-63.101 h 24.9 c 0.24,3.699 1.73,41.66 65.33,41.66 63.6,0 68.77,-41.168 68.77,-60.649 v -91.207 c 0,-64.836 -60.89,-66.308 -78.14,-66.308 -30.6,0 -71.25,6.902 -71.25,59.414 0,37.222 38.17,44.855 69.48,44.855 21.77,0 40.22,-3.691 40.22,-3.691 l 5.18,20.449 c -19.62,4.027 -36.47,5.758 -50.99,5.758 -92.33,0 -89.03,-70.332 -89.03,-70.332 0,-52.512 36.49,-76.879 98.12,-76.918 62.12,0 79.52,29.957 83.96,36.863 7.44,-27.816 26.3,-33.332 40.09,-33.332 9.07,0 15.96,2.383 15.96,2.383 v 21.695 c -5.95,-2.285 -11.04,-3.289 -15.37,-3.289 -19.04,0 -23.58,19.41 -23.58,34.723 V 624.18 c 0,58.906 -50.54,77.894 -94.41,77.894"
         style="fill:#231f20;fill-opacity:1;fill-rule:nonzero;stroke:none"
         id="path32" />
      <path
         d="m 788.859,260.332 c -95.5,0 -95.5,-71.859 -95.5,-91.703 V 3.96484 h 24.657 V 164.926 c 0,19.847 -0.047,74.445 70.843,74.445 70.891,0 71.387,-54.598 71.387,-74.445 V 3.96484 h 24.649 V 168.629 c 0,19.844 -0.536,91.703 -96.036,91.703"
         style="fill:#231f20;fill-opacity:1;fill-rule:nonzero;stroke:none"
         id="path34" />
      <path
         d="m 1920.32,256.633 h -24.65 V 95.6602 c 0,-24.1524 -3.62,-74.4336 -72.23,-74.4336 -68.2,0 -72.97,50.2812 -72.97,74.4336 V 256.633 h -24.64 V 95.8789 c 0,-24.3711 4.53,-95.613275 97.61,-95.613275 87.55,0 96.19,64.398475 96.84,91.679675 l 0.04,0.0274 V 256.633"
         style="fill:#231f20;fill-opacity:1;fill-rule:nonzero;stroke:none"
         id="path36" />
      <path
         d="M 614.965,256.637 H 590.32 V 3.97266 h 24.645 V 256.637"
         style="fill:#231f20;fill-opacity:1;fill-rule:nonzero;stroke:none"
         id="path38" />
      <path
         d="m 602.645,345.129 c -11.575,0 -20.957,-9.66 -20.957,-21.574 0,-11.91 9.382,-21.563 20.957,-21.563 11.574,0 20.957,9.653 20.957,21.563 0,11.914 -9.383,21.574 -20.957,21.574"
         style="fill:#231f20;fill-opacity:1;fill-rule:nonzero;stroke:none"
         id="path40" />
      <path
         d="m 1440.87,256.637 h -24.64 V 3.97266 h 24.64 V 256.637"
         style="fill:#231f20;fill-opacity:1;fill-rule:nonzero;stroke:none"
         id="path42" />
      <path
         d="m 1428.55,345.129 c -11.58,0 -20.96,-9.66 -20.96,-21.574 0,-11.91 9.38,-21.563 20.96,-21.563 11.57,0 20.95,9.653 20.95,21.563 0,11.914 -9.38,21.574 -20.95,21.574"
         style="fill:#231f20;fill-opacity:1;fill-rule:nonzero;stroke:none"
         id="path44" />
      <path
         d="m 1261.03,321.957 h -24.65 v -65.324 h -45.12 v -20.949 h 45.12 V 71.7734 h 0.04 l -0.04,-0.7773 c 0,-44.9258 30.02,-70.734381 75.67,-70.734381 8.45,0 17.44,0.882811 26.87,2.699221 V 24.8984 c 0,0 -11.97,-3.375 -26.53,-3.375 -22.58,0 -51.36,8.1016 -51.36,49.4727 l -0.06,0.7773 h 0.06 V 235.684 h 72.96 v 20.949 h -72.96 v 65.324"
         style="fill:#231f20;fill-opacity:1;fill-rule:nonzero;stroke:none"
         id="path46" />
      <path
         d="m 1579.55,321.957 h -24.64 v -65.324 h -45.12 v -20.949 h 45.12 V 71.7734 h 0.03 l -0.03,-0.7773 c 0,-44.9258 30.01,-70.734381 75.68,-70.734381 8.44,0 17.42,0.882811 26.86,2.699221 V 24.8984 c 0,0 -11.98,-3.375 -26.54,-3.375 -22.58,0 -51.36,8.1016 -51.36,49.4727 l -0.06,0.7773 h 0.06 V 235.684 h 72.97 v 20.949 h -72.97 v 65.324"
         style="fill:#231f20;fill-opacity:1;fill-rule:nonzero;stroke:none"
         id="path48" />
      <path
         d="m 2050.28,321.957 h -24.65 v -65.324 h -45.12 v -20.949 h 45.12 V 71.7734 h 0.04 l -0.04,-0.7773 c 0,-44.9258 30.02,-70.734381 75.69,-70.734381 8.44,0 17.42,0.882811 26.85,2.699221 V 24.8984 c 0,0 -11.97,-3.375 -26.53,-3.375 -22.58,0 -51.36,8.1016 -51.36,49.4727 l -0.06,0.7773 h 0.06 V 235.684 h 72.97 v 20.949 h -72.97 v 65.324"
         style="fill:#231f20;fill-opacity:1;fill-rule:nonzero;stroke:none"
         id="path50" />
      <path
         d="m 1050.7,261.07 c -78.145,0 -91.208,-41.937 -91.208,-65.57 0,-45.082 43.198,-64.93 82.588,-70.066 36.08,-4.707 78.37,-8.043 78.37,-50.9613 0,-44.1289 -39.67,-53.25 -70.74,-53.25 -36.5,0 -71.98,13.8359 -71.98,55.2421 H 951.605 C 951.605,68.6641 954.016,0 1047.87,0 c 1.02,0 2.03,0 3.07,0.0234375 C 1145.1,1.5 1145.11,54.5273 1145.11,74.9531 c 0,27.3949 -10.16,64.0349 -87.49,71.6449 -73.034,7.179 -73.229,44.019 -73.229,49.882 0,8.379 -0.496,42.895 64.579,42.895 68.79,0 66.31,-39.93 66.31,-39.93 h 24.66 c 0,0 -2.71,61.625 -89.24,61.625"
         style="fill:#231f20;fill-opacity:1;fill-rule:nonzero;stroke:none"
         id="path52" />
      <path
         d="m 159.871,698.039 h 89.024 L 477.961,3.59766 H 388.938 L 159.871,698.039"
         style="fill:#231f20;fill-opacity:1;fill-rule:nonzero;stroke:none"
         id="path54" />
      <path
         d="M 0,698.039 H 89.0234 L 318.09,3.59766 H 229.066 L 0,698.039"
         style="fill:#231f20;fill-opacity:1;fill-rule:nonzero;stroke:none"
         id="path56" />
    </g>
  </g>
</svg>
