<?xml version="1.0" standalone="no"?>
<!DOCTYPE svg PUBLIC "-//W3C//DTD SVG 20010904//EN"
 "http://www.w3.org/TR/2001/REC-SVG-20010904/DTD/svg10.dtd">
<svg version="1.0" xmlns="http://www.w3.org/2000/svg"
 width="200.000000pt" height="52.000000pt" viewBox="0 0 200.000000 52.000000"
 preserveAspectRatio="xMidYMid meet">

<g transform="translate(0.000000,52.000000) scale(0.100000,-0.100000)"
fill="#000000" stroke="none">
<path d="M1252 424 c-2 -71 2 -106 12 -119 17 -23 71 -24 93 -2 23 23 23 100
-1 126 -20 22 -51 28 -60 12 -4 -5 2 -7 12 -4 30 7 52 -23 52 -72 0 -49 -25
-77 -61 -68 -30 8 -33 20 -40 128 l-6 100 -1 -101z"/>
<path d="M690 490 c0 -5 5 -10 10 -10 6 0 10 5 10 10 0 6 -4 10 -10 10 -5 0
-10 -4 -10 -10z"/>
<path d="M10 443 c0 -4 33 -105 72 -225 66 -199 75 -218 95 -218 13 0 23 6 23
12 0 7 -32 109 -71 225 -66 199 -72 213 -95 213 -13 0 -24 -3 -24 -7z"/>
<path d="M111 443 c0 -4 33 -105 72 -223 64 -190 75 -215 95 -218 13 -2 22 2
22 10 0 7 -31 107 -68 223 -65 201 -69 210 -95 213 -15 2 -27 0 -26 -5z"/>
<path d="M254 435 c34 -116 43 -139 52 -142 5 -2 21 26 33 62 13 36 27 63 31
60 4 -2 15 -32 24 -65 9 -33 21 -60 26 -60 10 0 64 139 57 146 -3 3 -15 -24
-28 -60 -13 -36 -27 -62 -30 -58 -4 4 -14 32 -24 62 -10 30 -21 59 -25 63 -4
5 -18 -17 -29 -50 -12 -32 -24 -65 -28 -73 -3 -9 -14 11 -27 52 -12 37 -25 70
-30 75 -5 4 -6 -1 -2 -12z"/>
<path d="M533 424 c-21 -22 -25 -32 -20 -66 3 -22 12 -48 21 -56 21 -21 76
-20 92 3 17 23 9 35 -9 13 -37 -46 -87 -19 -87 47 0 68 39 96 80 55 29 -29 25
-40 -15 -40 -19 0 -35 -4 -35 -10 0 -5 18 -10 40 -10 36 0 40 3 40 25 0 30
-32 65 -60 65 -12 0 -33 -12 -47 -26z"/>
<path d="M803 443 c26 -2 47 -7 47 -10 0 -3 -10 -20 -23 -37 -13 -17 -36 -48
-51 -68 l-28 -38 63 2 64 1 -52 6 -52 6 49 65 c26 35 46 68 44 72 -3 5 -29 7
-57 6 l-52 -2 48 -3z"/>
<path d="M923 424 c-21 -22 -25 -32 -20 -66 3 -22 12 -48 21 -56 21 -21 76
-20 92 3 17 23 9 35 -9 13 -37 -46 -87 -19 -87 47 0 68 39 96 80 55 29 -29 25
-40 -15 -40 -19 0 -35 -4 -35 -10 0 -5 18 -10 40 -10 36 0 40 3 40 25 0 30
-32 65 -60 65 -12 0 -33 -12 -47 -26z"/>
<path d="M1102 434 c-19 -13 -22 -23 -20 -82 l1 -67 6 61 c6 64 22 94 50 94
35 0 46 -19 52 -87 l6 -68 1 67 c2 59 -1 69 -20 82 -12 9 -29 16 -38 16 -9 0
-26 -7 -38 -16z"/>
<path d="M1448 439 c-10 -5 -18 -15 -18 -20 0 -6 7 -3 16 5 34 35 73 15 81
-41 9 -66 -23 -101 -76 -82 -37 14 -25 53 19 59 22 3 30 8 23 13 -18 11 -62
-3 -73 -23 -22 -42 24 -76 80 -60 17 5 37 8 43 6 7 -1 9 -1 5 1 -5 3 -8 31 -8
63 0 49 -4 61 -22 74 -26 18 -46 20 -70 5z"/>
<path d="M1712 390 c-3 -86 -20 -107 -69 -89 -21 7 -23 15 -23 74 0 37 -4 65
-10 65 -14 0 -12 -113 3 -133 20 -26 60 -31 86 -10 20 16 22 25 18 88 l-3 70
-2 -65z"/>
<path d="M1798 439 c-15 -8 -18 -23 -16 -82 l2 -72 3 65 c3 46 9 69 20 78 43
32 72 0 75 -81 2 -59 2 -60 5 -12 5 74 11 93 33 100 10 3 28 1 40 -5 17 -9 20
-22 22 -78 2 -66 2 -66 5 -13 2 30 2 65 -2 78 -7 30 -48 40 -78 20 -20 -13
-26 -13 -42 -1 -22 16 -43 17 -67 3z"/>
<path d="M690 365 c0 -43 4 -75 10 -75 6 0 10 32 10 75 0 43 -4 75 -10 75 -6
0 -10 -32 -10 -75z"/>
<path d="M380 210 c0 -5 5 -10 10 -10 6 0 10 5 10 10 0 6 -4 10 -10 10 -5 0
-10 -4 -10 -10z"/>
<path d="M905 210 c-3 -5 1 -10 10 -10 9 0 13 5 10 10 -3 6 -8 10 -10 10 -2 0
-7 -4 -10 -10z"/>
<path d="M790 181 c0 -11 -6 -22 -12 -24 -10 -4 -10 -6 0 -6 8 -1 12 -19 12
-54 0 -60 20 -97 53 -96 19 0 19 2 -5 11 -27 9 -28 13 -28 73 0 58 2 64 23 68
l22 4 -22 2 c-16 1 -23 7 -23 21 0 11 -4 20 -10 20 -5 0 -10 -9 -10 -19z"/>
<path d="M1001 183 c0 -12 -9 -24 -18 -26 -17 -4 -17 -5 0 -6 14 -1 17 -11 17
-64 0 -67 11 -87 45 -87 18 0 17 2 -5 13 -22 11 -25 20 -28 74 -3 61 -2 62 25
66 l28 4 -27 2 c-19 1 -28 7 -31 24 -4 22 -4 22 -6 0z"/>
<path d="M1301 183 c0 -12 -9 -24 -18 -26 -17 -4 -17 -5 0 -6 14 -1 17 -11 17
-64 0 -67 11 -87 45 -87 18 0 17 2 -5 13 -22 11 -25 20 -28 74 -3 61 -2 62 25
66 l28 4 -27 2 c-19 1 -28 7 -31 24 -4 22 -4 22 -6 0z"/>
<path d="M643 160 c-16 -6 -23 -18 -23 -35 0 -26 17 -38 73 -49 17 -4 27 -13
27 -24 0 -44 -58 -57 -84 -20 -13 19 -16 20 -16 5 0 -25 44 -43 78 -31 21 7
27 16 27 38 0 30 -9 37 -60 53 -44 13 -42 47 3 51 18 2 39 0 46 -5 6 -4 3 0
-7 10 -21 19 -31 20 -64 7z"/>
<path d="M380 79 c0 -51 4 -78 10 -74 6 3 10 40 10 81 0 43 -4 74 -10 74 -6 0
-10 -34 -10 -81z"/>
<path d="M462 148 c-7 -7 -11 -39 -10 -82 l2 -71 3 65 c5 76 15 92 57 88 31
-3 31 -3 34 -68 4 -87 22 -104 22 -21 0 83 -11 101 -58 101 -21 0 -43 -5 -50
-12z"/>
<path d="M913 80 c0 -47 2 -66 4 -42 2 23 2 61 0 85 -2 23 -4 4 -4 -43z"/>
<path d="M1112 98 c-2 -74 11 -98 54 -98 43 0 64 33 64 100 0 33 -4 60 -10 60
-6 0 -10 -28 -10 -64 0 -75 -15 -95 -58 -80 -25 9 -27 15 -33 79 l-5 70 -2
-67z"/>
</g>
</svg>
